{"title":"Urban Explorer 2011 BRRip XviD Ac3 Feel-Free","uid":7083468,"size":1048414336,"categoryP":"video","categoryS":"movies","magnet":"?xt=urn:btih:8672538f06150302079be5f317c2d5214195b45c&amp;dn=Urban+Explorer+2011+BRRip+XviD+Ac3+Feel-Free&amp;tr=udp%3A%2F%2Ftracker.openbittorrent.com%3A80&amp;tr=udp%3A%2F%2Fopen.demonii.com%3A1337&amp;tr=udp%3A%2F%2Ftracker.coppersurfer.tk%3A6969&amp;tr=udp%3A%2F%2Fexodus.desync.com%3A6969","seeders":1,"leechers":2,"uploader":null,"files":8,"time":1331110264,"description":"Genre: Horror | Thriller\nLanguage:English\nIMDb:http://www.imdb.com/title/tt1642665/\nSource:720p.BluRay.x264-7SinS Thanks!\nSubtitles:NA\nEncoder:Tony\n\nFormat : AVI\nFormat/Info : Audio Video Interleave\nFile size : 999 MiB\nDuration : 1h 34mn\nOverall bit rate : 1 479 Kbps\n\nVideo\nID : 0\nFormat : MPEG-4 Visual\nFormat profile : Advanced Simple@L5\nFormat settings, BVOP : 1\nFormat settings, QPel : No\nFormat settings, GMC : No warppoints\nFormat settings, Matrix : Default (H.263)\nCodec ID : XVID\nCodec ID/Hint : XviD\nDuration : 1h 34mn\nBit rate : 1 022 Kbps\nWidth : 640 pixels\nHeight : 272 pixels\nDisplay aspect ratio : 2.35:1\nFrame rate : 23.976 fps\nColor space : YUV\nChroma subsampling : 4:2:0\nBit depth : 8 bits\nScan type : Progressive\nCompression mode : Lossy\nBits/(Pixel*Frame) : 0.245\nStream size : 690 MiB (69%)\nWriting library : XviD 1.2.1 (UTC 2008-12-04)\n\nAudio\nID : 1\nFormat : AC-3\nFormat/Info : Audio Coding 3\nMode extension : CM (complete main)\nCodec ID : 2000\nDuration : 1h 34mn\nBit rate mode : Constant\nBit rate : 448 Kbps\nChannel(s) : 6 channels\nChannel positions : Front: L C R, Side: L R, LFE\nSampling rate : 48.0 KHz\nBit depth : 16 bits\nCompression mode : Lossy\nStream size : 302 MiB (30%)\nAlignment : Aligned on interleaves\nInterleave, duration : 42 ms (1.00 video frame)\nInterleave, preload duration : 512 ms\n\n\nPlot:\nAnxious to explore the mysterious hidden world under metropolitan Berlin, an international group of four urban explorers hires a local guide\n\nTRAILER:\n\n\n\n\n\n\n\n\n\nGreets:\n\nCRYS,IMAGINE,LKRG,FXG,3Li,FLAWL3SS,TA,iLLUSiON,EMBER,HOPE,GooN,BBnRG,NOGRP,ETRG,BHRG,iLLUMiNATi,MiSTERE.ViSiON,DTRG SAFCuk009,LU,TheFalcon007,MYSTiC,PrisM,Noir,WBZ,LAP,Rx,Kingdom,SAFCuk009+Fabreezy,HDLiTE,TWiZTED,ExtraTorrentRG.ELEKTRI4KA,MAGNAT,CM8\nAnd to all the other p2p grps past and present\n\n\n\n\nMake sure its a real Feel-Free release @\n\nThanks to all who promotes release Feel-Free !!!","torrent":{"xt":"urn:btih:8672538f06150302079be5f317c2d5214195b45c","amp;dn":"Urban+Explorer+2011+BRRip+XviD+Ac3+Feel-Free","amp;tr":["udp%3A%2F%2Ftracker.openbittorrent.com%3A80","udp%3A%2F%2Fopen.demonii.com%3A1337","udp%3A%2F%2Ftracker.coppersurfer.tk%3A6969","udp%3A%2F%2Fexodus.desync.com%3A6969"],"infoHash":"8672538f06150302079be5f317c2d5214195b45c","infoHashBuffer":{"type":"Buffer","data":[134,114,83,143,6,21,3,2,7,155,229,243,23,194,213,33,65,149,180,92]},"announce":[],"urlList":[]}}